<?xml version="1.0" encoding="UTF-8" standalone="no"?>
<!-- Created with Inkscape (http://www.inkscape.org/) -->

<svg
   xmlns:dc="http://purl.org/dc/elements/1.1/"
   xmlns:cc="http://creativecommons.org/ns#"
   xmlns:rdf="http://www.w3.org/1999/02/22-rdf-syntax-ns#"
   xmlns:svg="http://www.w3.org/2000/svg"
   xmlns="http://www.w3.org/2000/svg"
   xmlns:sodipodi="http://sodipodi.sourceforge.net/DTD/sodipodi-0.dtd"
   xmlns:inkscape="http://www.inkscape.org/namespaces/inkscape"
   width="495"
   height="420"
   viewBox="0 0 494.99991 420"
   id="svg3514"
   version="1.1"
   inkscape:version="0.91 r13725"
   sodipodi:docname="MSESinPred.svg">
  <defs
     id="defs3516">
    <clipPath
       id="clipPath164"
       clipPathUnits="userSpaceOnUse">
      <path
         inkscape:connector-curvature="0"
         id="path166"
         d="m 870,5775.01 0,-3150.01 4200.01,0 0,3150.01 -4200.01,0 z" />
    </clipPath>
    <clipPath
       id="clipPath144"
       clipPathUnits="userSpaceOnUse">
      <path
         inkscape:connector-curvature="0"
         id="path146"
         d="m 1417.5,5520.01 0,-2557.51 3262.51,0 0,2557.51 -3262.51,0 z" />
    </clipPath>
    <clipPath
       id="clipPath18"
       clipPathUnits="userSpaceOnUse">
      <path
         inkscape:connector-curvature="0"
         id="path20"
         d="m 870,5775.01 0,-3150.01 4200.01,0 0,3150.01 -4200.01,0 z" />
    </clipPath>
  </defs>
  <sodipodi:namedview
     id="base"
     pagecolor="#ffffff"
     bordercolor="#666666"
     borderopacity="1.0"
     inkscape:pageopacity="0.0"
     inkscape:pageshadow="2"
     inkscape:zoom="0.49497475"
     inkscape:cx="409.20333"
     inkscape:cy="459.67327"
     inkscape:document-units="px"
     inkscape:current-layer="layer1"
     showgrid="false"
     inkscape:window-width="1536"
     inkscape:window-height="803"
     inkscape:window-x="-8"
     inkscape:window-y="2"
     inkscape:window-maximized="1"
     units="px"
     width="296mm" />
  <metadata
     id="metadata3519">
    <rdf:RDF>
      <cc:Work
         rdf:about="">
        <dc:format>image/svg+xml</dc:format>
        <dc:type
           rdf:resource="http://purl.org/dc/dcmitype/StillImage" />
        <dc:title></dc:title>
      </cc:Work>
    </rdf:RDF>
  </metadata>
  <g
     inkscape:label="Ebene 1"
     inkscape:groupmode="layer"
     id="layer1"
     transform="translate(0,-632.36219)">
    <g
       transform="matrix(0.125,0,0,-0.125,-108.30544,1367.6852)"
       id="g14">
      <g
         clip-path="url(#clipPath18)"
         id="g16">
        <path
           inkscape:connector-curvature="0"
           id="path22"
           style="fill:none;stroke:#ffffff;stroke-width:5.00001001;stroke-linecap:butt;stroke-linejoin:round;stroke-miterlimit:10;stroke-dasharray:none;stroke-opacity:1"
           d="m 1417.5,2970 0,2550.01 3255.01,0 0,-2550.01 -3255.01,0" />
        <path
           inkscape:connector-curvature="0"
           id="path24"
           style="fill:none;stroke:#000000;stroke-width:5.00001001;stroke-linecap:butt;stroke-linejoin:round;stroke-miterlimit:10;stroke-dasharray:none;stroke-opacity:1"
           d="m 1417.5,2970 3255.01,0" />
        <path
           inkscape:connector-curvature="0"
           id="path26"
           style="fill:none;stroke:#000000;stroke-width:5.00001001;stroke-linecap:butt;stroke-linejoin:round;stroke-miterlimit:10;stroke-dasharray:none;stroke-opacity:1"
           d="m 1417.5,2970 0,2550.01" />
        <path
           inkscape:connector-curvature="0"
           id="path28"
           style="fill:none;stroke:#000000;stroke-width:5.00001001;stroke-linecap:butt;stroke-linejoin:round;stroke-miterlimit:10;stroke-dasharray:none;stroke-opacity:1"
           d="m 1417.5,2970 0,37.5" />
        <g
           transform="scale(10,10)"
           id="g30">
          <text
             id="text32"
             style="font-variant:normal;font-weight:bold;font-size:12px;font-family:Helvetica;-inkscape-font-specification:Helvetica-Bold;writing-mode:lr-tb;fill:#000000;fill-opacity:1;fill-rule:nonzero;stroke:none"
             transform="matrix(1,0,0,-1,138.75,283.5)">
            <tspan
               id="tspan34"
               y="0"
               x="0">0</tspan>
          </text>
        </g>
        <path
           inkscape:connector-curvature="0"
           id="path36"
           style="fill:none;stroke:#000000;stroke-width:5.00001001;stroke-linecap:butt;stroke-linejoin:round;stroke-miterlimit:10;stroke-dasharray:none;stroke-opacity:1"
           d="m 2062.5,2970 0,37.5" />
        <g
           transform="scale(10,10)"
           id="g38">
          <text
             id="text40"
             style="font-variant:normal;font-weight:bold;font-size:12px;font-family:Helvetica;-inkscape-font-specification:Helvetica-Bold;writing-mode:lr-tb;fill:#000000;fill-opacity:1;fill-rule:nonzero;stroke:none"
             transform="matrix(1,0,0,-1,199.5,283.5)">
            <tspan
               id="tspan42"
               y="0"
               x="0 6.6719999">10</tspan>
          </text>
        </g>
        <path
           inkscape:connector-curvature="0"
           id="path44"
           style="fill:none;stroke:#000000;stroke-width:5.00001001;stroke-linecap:butt;stroke-linejoin:round;stroke-miterlimit:10;stroke-dasharray:none;stroke-opacity:1"
           d="m 2715,2970 0,37.5" />
        <g
           transform="scale(10,10)"
           id="g46">
          <text
             id="text48"
             style="font-variant:normal;font-weight:bold;font-size:12px;font-family:Helvetica;-inkscape-font-specification:Helvetica-Bold;writing-mode:lr-tb;fill:#000000;fill-opacity:1;fill-rule:nonzero;stroke:none"
             transform="matrix(1,0,0,-1,264.75,283.5)">
            <tspan
               id="tspan50"
               y="0"
               x="0 6.6719999">20</tspan>
          </text>
        </g>
        <path
           inkscape:connector-curvature="0"
           id="path52"
           style="fill:none;stroke:#000000;stroke-width:5.00001001;stroke-linecap:butt;stroke-linejoin:round;stroke-miterlimit:10;stroke-dasharray:none;stroke-opacity:1"
           d="m 3367.51,2970 0,37.5" />
        <g
           transform="scale(10,10)"
           id="g54">
          <text
             id="text56"
             style="font-variant:normal;font-weight:bold;font-size:12px;font-family:Helvetica;-inkscape-font-specification:Helvetica-Bold;writing-mode:lr-tb;fill:#000000;fill-opacity:1;fill-rule:nonzero;stroke:none"
             transform="matrix(1,0,0,-1,330.001,283.5)">
            <tspan
               id="tspan58"
               y="0"
               x="0 6.6719999">30</tspan>
          </text>
        </g>
        <path
           inkscape:connector-curvature="0"
           id="path60"
           style="fill:none;stroke:#000000;stroke-width:5.00001001;stroke-linecap:butt;stroke-linejoin:round;stroke-miterlimit:10;stroke-dasharray:none;stroke-opacity:1"
           d="m 4020.01,2970 0,37.5" />
        <g
           transform="scale(10,10)"
           id="g62">
          <text
             id="text64"
             style="font-variant:normal;font-weight:bold;font-size:12px;font-family:Helvetica;-inkscape-font-specification:Helvetica-Bold;writing-mode:lr-tb;fill:#000000;fill-opacity:1;fill-rule:nonzero;stroke:none"
             transform="matrix(1,0,0,-1,395.251,283.5)">
            <tspan
               id="tspan66"
               y="0"
               x="0 6.6719999">40</tspan>
          </text>
        </g>
        <path
           inkscape:connector-curvature="0"
           id="path68"
           style="fill:none;stroke:#000000;stroke-width:5.00001001;stroke-linecap:butt;stroke-linejoin:round;stroke-miterlimit:10;stroke-dasharray:none;stroke-opacity:1"
           d="m 4672.51,2970 0,37.5" />
        <g
           transform="scale(10,10)"
           id="g70">
          <text
             id="text72"
             style="font-variant:normal;font-weight:bold;font-size:12px;font-family:Helvetica;-inkscape-font-specification:Helvetica-Bold;writing-mode:lr-tb;fill:#000000;fill-opacity:1;fill-rule:nonzero;stroke:none"
             transform="matrix(1,0,0,-1,460.501,283.5)">
            <tspan
               id="tspan74"
               y="0"
               x="0 6.6719999">50</tspan>
          </text>
        </g>
        <path
           inkscape:connector-curvature="0"
           id="path76"
           style="fill:none;stroke:#000000;stroke-width:5.00001001;stroke-linecap:butt;stroke-linejoin:round;stroke-miterlimit:10;stroke-dasharray:none;stroke-opacity:1"
           d="m 1417.5,2970 30,0" />
        <g
           transform="scale(10,10)"
           id="g78">
          <text
             id="text80"
             style="font-variant:normal;font-weight:bold;font-size:12px;font-family:Helvetica;-inkscape-font-specification:Helvetica-Bold;writing-mode:lr-tb;fill:#000000;fill-opacity:1;fill-rule:nonzero;stroke:none"
             transform="matrix(1,0,0,-1,118.5,292.5)">
            <tspan
               id="tspan82"
               y="0"
               x="0 7.0079999 13.68 17.016001">−0.2</tspan>
          </text>
        </g>
        <path
           inkscape:connector-curvature="0"
           id="path84"
           style="fill:none;stroke:#000000;stroke-width:5.00001001;stroke-linecap:butt;stroke-linejoin:round;stroke-miterlimit:10;stroke-dasharray:none;stroke-opacity:1"
           d="m 1417.5,3337.5 30,0" />
        <g
           transform="scale(10,10)"
           id="g86">
          <text
             id="text88"
             style="font-variant:normal;font-weight:bold;font-size:12px;font-family:Helvetica;-inkscape-font-specification:Helvetica-Bold;writing-mode:lr-tb;fill:#000000;fill-opacity:1;fill-rule:nonzero;stroke:none"
             transform="matrix(1,0,0,-1,118.5,329.25)">
            <tspan
               id="tspan90"
               y="0"
               x="0 7.0079999 13.68 17.016001">−0.1</tspan>
          </text>
        </g>
        <path
           inkscape:connector-curvature="0"
           id="path92"
           style="fill:none;stroke:#000000;stroke-width:5.00001001;stroke-linecap:butt;stroke-linejoin:round;stroke-miterlimit:10;stroke-dasharray:none;stroke-opacity:1"
           d="m 1417.5,3705.01 30,0" />
        <g
           transform="scale(10,10)"
           id="g94">
          <text
             id="text96"
             style="font-variant:normal;font-weight:bold;font-size:12px;font-family:Helvetica;-inkscape-font-specification:Helvetica-Bold;writing-mode:lr-tb;fill:#000000;fill-opacity:1;fill-rule:nonzero;stroke:none"
             transform="matrix(1,0,0,-1,132,366.001)">
            <tspan
               id="tspan98"
               y="0"
               x="0">0</tspan>
          </text>
        </g>
        <path
           inkscape:connector-curvature="0"
           id="path100"
           style="fill:none;stroke:#000000;stroke-width:5.00001001;stroke-linecap:butt;stroke-linejoin:round;stroke-miterlimit:10;stroke-dasharray:none;stroke-opacity:1"
           d="m 1417.5,4065.01 30,0" />
        <g
           transform="scale(10,10)"
           id="g102">
          <text
             id="text104"
             style="font-variant:normal;font-weight:bold;font-size:12px;font-family:Helvetica;-inkscape-font-specification:Helvetica-Bold;writing-mode:lr-tb;fill:#000000;fill-opacity:1;fill-rule:nonzero;stroke:none"
             transform="matrix(1,0,0,-1,122.25,402.001)">
            <tspan
               id="tspan106"
               y="0"
               x="0 6.6719999 10.008">0.1</tspan>
          </text>
        </g>
        <path
           inkscape:connector-curvature="0"
           id="path108"
           style="fill:none;stroke:#000000;stroke-width:5.00001001;stroke-linecap:butt;stroke-linejoin:round;stroke-miterlimit:10;stroke-dasharray:none;stroke-opacity:1"
           d="m 1417.5,4432.51 30,0" />
        <g
           transform="scale(10,10)"
           id="g110">
          <text
             id="text112"
             style="font-variant:normal;font-weight:bold;font-size:12px;font-family:Helvetica;-inkscape-font-specification:Helvetica-Bold;writing-mode:lr-tb;fill:#000000;fill-opacity:1;fill-rule:nonzero;stroke:none"
             transform="matrix(1,0,0,-1,122.25,438.751)">
            <tspan
               id="tspan114"
               y="0"
               x="0 6.6719999 10.008">0.2</tspan>
          </text>
        </g>
        <path
           inkscape:connector-curvature="0"
           id="path116"
           style="fill:none;stroke:#000000;stroke-width:5.00001001;stroke-linecap:butt;stroke-linejoin:round;stroke-miterlimit:10;stroke-dasharray:none;stroke-opacity:1"
           d="m 1417.5,4792.51 30,0" />
        <g
           transform="scale(10,10)"
           id="g118">
          <text
             id="text120"
             style="font-variant:normal;font-weight:bold;font-size:12px;font-family:Helvetica;-inkscape-font-specification:Helvetica-Bold;writing-mode:lr-tb;fill:#000000;fill-opacity:1;fill-rule:nonzero;stroke:none"
             transform="matrix(1,0,0,-1,122.25,474.751)">
            <tspan
               id="tspan122"
               y="0"
               x="0 6.6719999 10.008">0.3</tspan>
          </text>
        </g>
        <path
           inkscape:connector-curvature="0"
           id="path124"
           style="fill:none;stroke:#000000;stroke-width:5.00001001;stroke-linecap:butt;stroke-linejoin:round;stroke-miterlimit:10;stroke-dasharray:none;stroke-opacity:1"
           d="m 1417.5,5160.01 30,0" />
        <g
           transform="scale(10,10)"
           id="g126">
          <text
             id="text128"
             style="font-variant:normal;font-weight:bold;font-size:12px;font-family:Helvetica;-inkscape-font-specification:Helvetica-Bold;writing-mode:lr-tb;fill:#000000;fill-opacity:1;fill-rule:nonzero;stroke:none"
             transform="matrix(1,0,0,-1,122.25,511.501)">
            <tspan
               id="tspan130"
               y="0"
               x="0 6.6719999 10.008">0.4</tspan>
          </text>
        </g>
        <path
           inkscape:connector-curvature="0"
           id="path132"
           style="fill:none;stroke:#000000;stroke-width:5.00001001;stroke-linecap:butt;stroke-linejoin:round;stroke-miterlimit:10;stroke-dasharray:none;stroke-opacity:1"
           d="m 1417.5,5520.01 30,0" />
        <g
           transform="scale(10,10)"
           id="g134">
          <text
             id="text136"
             style="font-variant:normal;font-weight:bold;font-size:12px;font-family:Helvetica;-inkscape-font-specification:Helvetica-Bold;writing-mode:lr-tb;fill:#000000;fill-opacity:1;fill-rule:nonzero;stroke:none"
             transform="matrix(1,0,0,-1,122.25,547.501)">
            <tspan
               id="tspan138"
               y="0"
               x="0 6.6719999 10.008">0.5</tspan>
          </text>
        </g>
      </g>
    </g>
    <g
       transform="matrix(0.125,0,0,-0.125,-108.30544,1367.6852)"
       id="g140">
      <g
         clip-path="url(#clipPath144)"
         id="g142">
        <path
           inkscape:connector-curvature="0"
           id="path148"
           style="fill:none;stroke:#000000;stroke-width:20.00009918;stroke-linecap:butt;stroke-linejoin:round;stroke-miterlimit:10;stroke-dasharray:none;stroke-opacity:1"
           d="m 1477.5,4522.51 67.5,-37.5 67.5,-22.5 60,60 67.5,217.5 67.5,127.5 60,-22.5 67.5,-225 67.5,-82.5 60,-210 67.5,-120 67.5,-135 60,-75 67.5,-37.5 67.5,-22.5 60,-7.5 67.5,-7.5 67.5,-7.5 60,-7.5 67.5,0 67.5,-7.5 60,0 67.5,-7.5 67.5,0 67.5,-7.5 60,-7.5 67.5,0 67.51,-7.5 60,0 67.5,-7.5 67.5,0 60,-7.5 67.5,0 67.5,-7.5 60,0 67.5,-7.5 67.5,0 60,-7.5 135,0 60,-7.5 67.5,0 67.5,-7.5 127.5,0 67.5,-7.5 127.5,0 67.5,-7.5 67.5,0" />
        <path
           inkscape:connector-curvature="0"
           id="path150"
           style="fill:none;stroke:#000000;stroke-width:20.00009918;stroke-linecap:butt;stroke-linejoin:round;stroke-miterlimit:10;stroke-dasharray:none;stroke-opacity:1"
           d="m 1477.5,3195 67.5,37.5 67.5,45 60,-7.5 67.5,-135 67.5,-67.5 60,37.5 67.5,150 67.5,22.5 60,127.5 67.5,60.01 67.5,75 60,45 67.5,15 67.5,7.5 60,7.5 67.5,0 67.5,7.5 127.5,0 67.5,7.5 127.5,0 67.5,7.5 195,0 67.51,7.5 195,0 60,7.5 135,0 60,7.5 195,0 67.5,7.5 262.5,0 60,7.5 262.5,0 67.5,7.5 67.5,0" />
        <path
           inkscape:connector-curvature="0"
           id="path152"
           style="fill:#cccccc;fill-opacity:1;fill-rule:evenodd;stroke:none"
           d="m 1477.5,3195 67.5,37.5 67.5,45 60,-7.5 67.5,-135 67.5,-67.5 60,37.5 67.5,150 67.5,22.5 60,127.5 67.5,60.01 67.5,75 60,45 67.5,15 67.5,7.5 60,7.5 67.5,0 67.5,7.5 127.5,0 67.5,7.5 127.5,0 67.5,7.5 195,0 67.51,7.5 195,0 60,7.5 135,0 60,7.5 195,0 67.5,7.5 262.5,0 60,7.5 262.5,0 67.5,7.5 67.5,0 0,120 -67.5,0 -67.5,7.5 -127.5,0 -67.5,7.5 -127.5,0 -67.5,7.5 -67.5,0 -60,7.5 -135,0 -60,7.5 -67.5,0 -67.5,7.5 -60,0 -67.5,7.5 -67.5,0 -60,7.5 -67.5,0 -67.5,7.5 -60,0 -67.51,7.5 -67.5,0 -60,7.5 -67.5,7.5 -67.5,0 -67.5,7.5 -60,0 -67.5,7.5 -67.5,0 -60,7.5 -67.5,7.5 -67.5,7.5 -60,7.5 -67.5,22.5 -67.5,37.5 -60,75 -67.5,135 -67.5,120 -60,210 -67.5,82.5 -67.5,225 -60,22.5 -67.5,-127.5 -67.5,-217.5 -60,-60 -67.5,22.5 -67.5,37.5" />
        <path
           inkscape:connector-curvature="0"
           id="path154"
           style="fill:none;stroke:#000000;stroke-width:5.00001001;stroke-linecap:butt;stroke-linejoin:round;stroke-miterlimit:10;stroke-dasharray:none;stroke-opacity:1"
           d="m 1545,3232.5 67.5,45 60,-7.5 67.5,-135 67.5,-67.5 60,37.5 67.5,150 67.5,22.5 60,127.5 67.5,60.01 67.5,75 60,45 67.5,15 67.5,7.5 60,7.5 67.5,0 67.5,7.5 127.5,0 67.5,7.5 127.5,0 67.5,7.5 195,0 67.51,7.5 195,0 60,7.5 135,0 60,7.5 195,0 67.5,7.5 262.5,0 60,7.5 262.5,0 67.5,7.5 67.5,0 0,120 -67.5,0 -67.5,7.5 -127.5,0 -67.5,7.5 -127.5,0 -67.5,7.5 -67.5,0 -60,7.5 -135,0 -60,7.5 -67.5,0 -67.5,7.5 -60,0 -67.5,7.5 -67.5,0 -60,7.5 -67.5,0 -67.5,7.5 -60,0 -67.51,7.5 -67.5,0 -60,7.5 -67.5,7.5 -67.5,0 -67.5,7.5 -60,0 -67.5,7.5 -67.5,0 -60,7.5 -67.5,7.5 -67.5,7.5 -60,7.5 -67.5,22.5 -67.5,37.5 -60,75 -67.5,135 -67.5,120 -60,210 -67.5,82.5 -67.5,225 -60,22.5 -67.5,-127.5 -67.5,-217.5 -60,-60 -67.5,22.5 -67.5,37.5 0,-1327.51" />
        <path
           inkscape:connector-curvature="0"
           id="path156"
           style="fill:none;stroke:#000000;stroke-width:5.00001001;stroke-linecap:butt;stroke-linejoin:round;stroke-miterlimit:10;stroke-dasharray:none;stroke-opacity:1"
           d="m 1477.5,3195 67.5,37.5" />
        <path
           inkscape:connector-curvature="0"
           id="path158"
           style="fill:none;stroke:#0000ff;stroke-width:20.00009918;stroke-linecap:butt;stroke-linejoin:round;stroke-miterlimit:10;stroke-dasharray:none;stroke-opacity:1"
           d="m 1477.5,3862.51 67.5,-7.5 67.5,15 60,22.5 67.5,45 67.5,30 60,7.5 67.5,-37.5 67.5,-30 60,-45 67.5,-30 67.5,-22.5 60,-22.5 67.5,-7.5 67.5,-7.5 127.5,0 67.5,-7.5 390,0 67.5,-7.5 390.01,0 60,-7.5 585,0 67.5,-7.5 525,0" />
      </g>
    </g>
    <g
       transform="matrix(0.125,0,0,-0.125,-108.30544,1367.6852)"
       id="g160">
      <g
         clip-path="url(#clipPath164)"
         id="g162">
        <g
           transform="scale(10,10)"
           id="g168">
          <text
             id="text170"
             style="font-variant:normal;font-weight:bold;font-size:12px;font-family:Helvetica;-inkscape-font-specification:Helvetica-Bold;writing-mode:lr-tb;fill:#000000;fill-opacity:1;fill-rule:nonzero;stroke:none"
             transform="matrix(1,0,0,-1,282,270)">
            <tspan
               id="tspan172"
               y="0"
               x="0 8.0039997 15.336 22.667999 29.34 36.672001">Epoche</tspan>
          </text>
          <text
             id="text174"
             style="font-variant:normal;font-weight:bold;font-size:12px;font-family:Helvetica;-inkscape-font-specification:Helvetica-Bold;writing-mode:lr-tb;fill:#000000;fill-opacity:1;fill-rule:nonzero;stroke:none"
             transform="matrix(0,1,1,0,111,363.001)">
            <tspan
               id="tspan176"
               y="0"
               x="0 9.9960003 16.667999 23.34 30.672001 37.68 45.683998 53.015999 60.348 67.019997 71.688004 78.360001 85.692001 92.699997 100.704 105.372 110.04 117.372">Mean−Squared−Error</tspan>
          </text>
          <text
             id="text178"
             style="font-variant:normal;font-weight:bold;font-size:16px;font-family:Helvetica;-inkscape-font-specification:Helvetica-Bold;writing-mode:lr-tb;fill:#000000;fill-opacity:1;fill-rule:nonzero;stroke:none"
             transform="matrix(1,0,0,-1,186.75,561.001)">
            <tspan
               id="tspan180"
               y="0"
               x="0 13.328 24 34.672001 39.119999 49.792 54.240002 64.015999 69.344002 73.792 86.239998 90.688004 96.015999 105.792 110.24 119.136 128.032 142.256 146.70399 158.256 168.032 177.808 183.136 187.584 197.36 206.256 216.032 224.92799">MSE Plot with 95% Confidence</tspan>
          </text>
        </g>
      </g>
    </g>
  </g>
</svg>
